# xmcd
#
# Track frame offsets:
#	150
#	20078
#	55187
#	85121
#	94635
#	104890
#	118601
#	132178
#	143525
#	153945
#
# Disc length: 2191 seconds
#
# Revision: 0
# Processed by: cddbd v1.5.2PL0 Copyright (c) Steve Scherf et al.
# Submitted via: EasyCDDAExtractor 16.0.8.1
#
DISCID=7e088d0a
DTITLE=Roberto Ciotti - Bluesman (Live) (1979) (LP Miniature) by oreum.com
DYEAR=1979
DGENRE=Blues
TTITLE0=Mean Ol' Frisco 
TTITLE1=Baby Please Don't Go - Sugar Blues 
TTITLE2=Crossroads - Kokomo
TTITLE3=Shake It
TTITLE4=Blues In F
TTITLE5=Winehead Baby
TTITLE6=Catfish 
TTITLE7=Nobody Can Change My Face
TTITLE8=Bottle Up And Go
TTITLE9=Blues Man
EXTD=
EXTT0=
EXTT1=
EXTT2=
EXTT3=
EXTT4=
EXTT5=
EXTT6=
EXTT7=
EXTT8=
EXTT9=
PLAYORDER=
